<svg id="Layer_1" data-name="Layer 1" xmlns="http://www.w3.org/2000/svg" viewBox="0 0 439.78 440.75"><defs><style>.cls-1,.cls-3{fill:#cecaca;}.cls-1,.cls-4,.cls-5,.cls-6{stroke:#cecaca;}.cls-1,.cls-2,.cls-4,.cls-5,.cls-6{stroke-miterlimit:10;}.cls-1{stroke-width:0.67px;}.cls-2{fill:none;stroke:#0c435a;stroke-width:26.77px;}.cls-4,.cls-5,.cls-6{fill:#0c5c7a;}.cls-4{stroke-width:4.18px;}.cls-5{stroke-width:1.02px;}.cls-6{stroke-width:0.6px;}</style></defs><title>Feature_Schedule</title><ellipse class="cls-1" cx="219.89" cy="220.38" rx="196.5" ry="196.96"/><ellipse class="cls-2" cx="219.89" cy="220.38" rx="206.5" ry="206.99"/><circle class="cls-3" cx="219.87" cy="219.95" r="121.72"/><rect class="cls-4" x="134.81" y="194.51" width="171.46" height="104.55"/><line class="cls-4" x1="134.81" y1="230.24" x2="306.27" y2="230.24"/><line class="cls-4" x1="134.81" y1="263.17" x2="306.27" y2="263.17"/><line class="cls-4" x1="194" y1="194.51" x2="194" y2="299.06"/><line class="cls-4" x1="246.57" y1="194.51" x2="246.57" y2="299.06"/><ellipse class="cls-5" cx="272.09" cy="152.7" rx="7.47" ry="12.75"/><ellipse class="cls-5" cx="169.09" cy="151.7" rx="7.47" ry="12.75"/><path class="cls-6" d="M318.73,182.63c0,9.33-7,16.9-15.61,16.9S287.5,192,287.5,182.63h-72c0,9.33-7,16.9-15.62,16.9s-15.61-7.57-15.61-16.9H167.8v34.74H335.21V182.63Z" transform="translate(-30.63 -27.05)"/></svg>