<svg id="Layer_1" data-name="Layer 1" xmlns="http://www.w3.org/2000/svg" viewBox="0 0 439.78 440.75"><defs><style>.cls-1,.cls-2,.cls-4{fill:#cecaca;}.cls-2{stroke:#cecaca;stroke-width:0.67px;}.cls-2,.cls-3,.cls-4,.cls-5{stroke-miterlimit:10;}.cls-3{fill:#0c5c7a;stroke-width:5.11px;}.cls-3,.cls-4{stroke:#0c5c7a;}.cls-4{stroke-width:5.3px;}.cls-5{fill:none;stroke:#0c435a;stroke-width:26.77px;}</style></defs><title>Feature_Reports</title><circle class="cls-1" cx="219.43" cy="227.44" r="121.72"/><ellipse class="cls-2" cx="221.9" cy="219.91" rx="196.5" ry="196.96"/><path class="cls-3" d="M319,237.46V172.39s3.15-12.74-11.05-13.44-99.82-.35-99.82-.35l-31.57,29.71V331.9s0,9.91,8.68,9.91H306.73s9.47-.71,12.63-9.91V310.68C319.36,237.23,319,237.46,319,237.46Z" transform="translate(-30.11 -27.11)"/><polyline class="cls-4" points="147.98 162.78 179.95 162.78 179.95 131.93"/><path class="cls-1" d="M296.75,211.37H199.32a.66.66,0,0,1-.73-.57v-6.19a.67.67,0,0,1,.73-.58h97.43a.67.67,0,0,1,.73.58v6.19A.66.66,0,0,1,296.75,211.37Z" transform="translate(-30.11 -27.11)"/><path class="cls-1" d="M296.75,235.54H199.32a.67.67,0,0,1-.73-.57v-6.19a.67.67,0,0,1,.73-.58h97.43a.67.67,0,0,1,.73.58V235A.67.67,0,0,1,296.75,235.54Z" transform="translate(-30.11 -27.11)"/><path class="cls-1" d="M296.75,262.13H199.32a.67.67,0,0,1-.73-.57v-6.19a.67.67,0,0,1,.73-.58h97.43a.67.67,0,0,1,.73.58v6.19A.67.67,0,0,1,296.75,262.13Z" transform="translate(-30.11 -27.11)"/><path class="cls-1" d="M297,286.3H199.42c-.45,0-.83-.26-.83-.57v-6.2c0-.31.38-.57.83-.57H297c.46,0,.84.26.84.57v6.2C297.79,286.05,297.41,286.3,297,286.3Z" transform="translate(-30.11 -27.11)"/><path class="cls-1" d="M297,310.49H199.42c-.45,0-.83-.26-.83-.58v-6.19c0-.32.38-.58.83-.58H297c.46,0,.84.26.84.58v6.19C297.79,310.23,297.41,310.49,297,310.49Z" transform="translate(-30.11 -27.11)"/><ellipse class="cls-5" cx="219.89" cy="220.38" rx="206.5" ry="206.99"/></svg>