<svg id="Layer_1" data-name="Layer 1" xmlns="http://www.w3.org/2000/svg" viewBox="0 0 439.78 440.75"><defs><style>.cls-1,.cls-3{fill:#cecaca;}.cls-1{stroke:#cecaca;stroke-width:0.67px;}.cls-1,.cls-2,.cls-4{stroke-miterlimit:10;}.cls-2{fill:none;stroke:#0c435a;stroke-width:26.77px;}.cls-4{fill:#0c5c7a;stroke:#0c5c7a;stroke-width:0.08px;}</style></defs><title>Feature_Chart</title><ellipse class="cls-1" cx="219.89" cy="220.38" rx="196.5" ry="196.96"/><ellipse class="cls-2" cx="219.89" cy="220.38" rx="206.5" ry="206.99"/><circle class="cls-3" cx="220.89" cy="219.38" r="121.72"/><path class="cls-4" d="M161,277.22l36.58-35.73,44.89,43.63s3.74,4.57,9.14,0,81.89-81,81.89-81l11.64,11.23s5.41,3.32,5.82-3.74L353,177.08s.42-5.41-3.74-5l-37.82,1.66s-5.4,1.66-2.08,5.82l11.22,11.64L247,264.76l-44.07-43.21s-5-5-9.56-.42l-44.06,44.05S146,279.71,161,277.22Z" transform="translate(-30.11 -29.12)"/><polygon class="cls-4" points="132.92 293.81 132.92 256.82 162.02 229.81 162.02 293.81 132.92 293.81"/><polygon class="cls-4" points="169.08 292.97 169.08 226.07 199.01 255.58 199.01 292.97 169.08 292.97"/><path class="cls-4" d="M236.18,322.1V292.17s12,9.15,21.62-1.24a101.67,101.67,0,0,0,7.48-7.48V322.1Z" transform="translate(-30.11 -29.12)"/><polygon class="cls-4" points="243.07 292.97 243.07 247.26 272.58 217.76 272.58 292.97 243.07 292.97"/><polygon class="cls-4" points="280.07 292.97 280.07 210.28 303.34 187.01 309.57 193.25 309.57 292.97 280.07 292.97"/></svg>