<svg id="Layer_1" data-name="Layer 1" xmlns="http://www.w3.org/2000/svg" viewBox="0 0 439.78 440.75"><defs><style>.cls-1,.cls-3,.cls-5{fill:#cecaca;}.cls-1{stroke:#cecaca;stroke-width:0.67px;}.cls-1,.cls-2,.cls-4,.cls-5{stroke-miterlimit:10;}.cls-2{fill:none;stroke:#0c435a;stroke-width:26.77px;}.cls-4{fill:#0c5c7a;}.cls-4,.cls-5{stroke:#0c5c7a;}</style></defs><title>Feature_Alerts</title><ellipse class="cls-1" cx="221.9" cy="219.91" rx="196.5" ry="196.96"/><ellipse class="cls-2" cx="219.89" cy="220.38" rx="206.5" ry="206.99"/><circle class="cls-3" cx="219.89" cy="219.94" r="121.72"/><path class="cls-4" d="M182.21,308.91s18.95-24.82,19.4-76.7,36.77-57.08,36.77-57.08-.45-15.79,12.18-15.79,11.72,15.34,11.72,15.34,41.05,11.73,37.44,60.91c0,0,.91,48.28,18.95,73.55,0,0,24.36,4.06,20.75,13.08,0,0,1.8,4.51-15.78,8.57s-111.88,11.73-152-1.8c0,0-10.82-1.8-10.37-9.48C161.23,319.51,160.78,312.29,182.21,308.91Z" transform="translate(-30.61 -28.06)"/><path class="cls-5" d="M244.45,173.54h11.73s.22-7.44-5.19-7.44S245.13,170.61,244.45,173.54Z" transform="translate(-30.61 -28.06)"/><path class="cls-4" d="M316.64,208.29l9-10.38s12.41,15.57,16,35,.45,40.6-8.12,55.49l-11.73-7.21S343,246.86,316.64,208.29Z" transform="translate(-30.61 -28.06)"/><path class="cls-4" d="M331.29,191.37l8.57-11.28s24.36,23.91,26.61,63.17-13.07,58.2-13.07,58.2l-11.73-8.12s14-23,9.92-55C351.59,238.29,349.33,210.32,331.29,191.37Z" transform="translate(-30.61 -28.06)"/><path class="cls-4" d="M175.21,198.14l9,9.92s-24.37,30.23-5.42,73.1l-11.27,7.21s-13.54-24.36-9-51.43C158.52,236.94,161.68,213.93,175.21,198.14Z" transform="translate(-30.61 -28.06)"/><path class="cls-4" d="M161.23,180.09l8.57,11.28s-20.31,19.85-20.75,56.85c0,0-1.36,27.07,10.37,45.12l-12.19,8.12s-19.84-33.83-10.37-74.89C136.87,226.57,142.73,198.59,161.23,180.09Z" transform="translate(-30.61 -28.06)"/></svg>